@startuml

'skinparam linetype ortho
skinparam nodesep 10
skinparam ranksep 20


interface IAuthService
interface ILocationsService
interface IEventsService
interface IReviewsService


' === COMMON ===

class RequestContext <<data>> {
    +token: option[JWTtoken]
}

abstract class Controller {
    -HTMLPageFactory: HTMLPageFactory
    #validateAccessToken(token: JWTtoken): bool
}

class HTMLPageFactory
Controller "HTMLPageFactory" "1" o-- "1" HTMLPageFactory


' === AUTH ===

interface IAuthController {
	+profileGet(ctx: RequestContext): HTMLDocument
    +registerGet(ctx: RequestContext): HTMLDocument
    +registerPost(ctx: RequestContext, user: User)
	+loginGet(ctx: RequestContext): HTMLDocument
    +loginPost(ctx: RequestContext, email: string, password: string): JWTtoken
    +updateUser(ctx: RequestContext, user: User)
    +deleteUser(ctx: RequestContext, email: string)
}

class AuthController {
    -authService: IAuthService
	+profileGet(ctx: RequestContext): HTMLDocument
    +registerGet(ctx: RequestContext): HTMLDocument
    +registerPost(ctx: RequestContext, user: User)
	+loginGet(ctx: RequestContext): HTMLDocument
    +loginPost(ctx: RequestContext, email: string, password: string): JWTtoken
    +updateUser(ctx: RequestContext, user: User)
    +deleteUser(ctx: RequestContext, email: string)
    -validateEmail(email: string): bool
    -validatePassword(password: string): bool
}

AuthController ..> RequestContext : <<use>>
AuthController ..> User : <<use>>
AuthController --|> Controller 
AuthController ..|> IAuthController 
AuthController "authService" "1" o-- "1" IAuthService



' === LOCATIONS ===

class LocationsController {
    -locationsService: ILocationsService
    +getLocations(ctx: RequestContext): HTMLDocument
    +addLocation(ctx: RequestContext, location: Location)
    +updateLocation(ctx: RequestContext, location: Location)
    +deleteLocation(ctx: RequestContext, id: int)
    +addAdministrator(ctx: RequestContext, locationId: int, email: string)
    +removeAdministrator(ctx: RequestContext, locationId: int, email: string)
}

interface ILocationsController {
    +getLocations(ctx: RequestContext): HTMLDocument
    +addLocation(ctx: RequestContext, location: Location)
    +updateLocation(ctx: RequestContext, location: Location)
    +deleteLocation(ctx: RequestContext, id: int)
    +addAdministrator(ctx: RequestContext, locationId: int, email: string)
    +removeAdministrator(ctx: RequestContext, locationId: int, email: string)
}

LocationsController ..> RequestContext : <<use>>
LocationsController ..> Location: <<use>>
LocationsController --|> Controller 
LocationsController ..|> ILocationsController 
LocationsController "locationsService" "1" o-- "1" ILocationsService





' === EVENTS ===

class EventsController {
    -EventsService: IEventsService
    +getEvents(ctx: RequestContext, location: Location): HTMLDocument
    +addEvent(ctx: RequestContext, Event: Event)
    +updateEvent(ctx: RequestContext, Event: Event)
    +deleteEvent(ctx: RequestContext, id: int)
}

interface IEventsController {
    +getEvents(ctx: RequestContext, location: Location): HTMLDocument
    +addEvent(ctx: RequestContext, Event: Event)
    +updateEvent(ctx: RequestContext, Event: Event)
    +deleteEvent(ctx: RequestContext, id: int)
}

EventsController ..> RequestContext : <<use>>
EventsController ..> Location : <<use>>
EventsController ..> Event: <<use>>
EventsController --|> Controller 
EventsController ..|> IEventsController 
EventsController "eventsService" "1" o-- "1" IEventsService




' === REVIEWS ===

class ReviewsController {
    -ReviewsService: IReviewsService
    +getReview(ctx: RequestContext, reviewId: int): Review
    +addReview(ctx: RequestContext, Review: Review)
    +updateReview(ctx: RequestContext, Review: Review)
    +deleteReview(ctx: RequestContext, id: int)
}

interface IReviewsController {
    +addReview(ctx: RequestContext, Review: Review)
    +updateReview(ctx: RequestContext, Review: Review)
    +deleteReview(ctx: RequestContext, id: int)
}

ReviewsController ..> RequestContext : <<use>>
ReviewsController ..> Review: <<use>>
ReviewsController --|> Controller 
ReviewsController ..|> IReviewsController 
ReviewsController "reviewsService" "1" o-- "1" IReviewsService




class Application <<injector>> <<singleton>> {
	+getRequiredController(httpRequest: HTTPRequest): Controller
}

note right of Application
	Implemented by framework. Creates controller 
	instances per request and calls methods 
	corresponding to endpoints
end note

Application ..> Controller : <<use>>
Application ..> ReviewsController : <<instantiate>>
Application ..> EventsController : <<instantiate>>
Application ..> LocationsController : <<instantiate>>
Application ..> AuthController : <<instantiate>>

Application ..> Controller : <<call>>
Application ..> ReviewsController : <<call>>
Application ..> EventsController : <<call>>
Application ..> LocationsController : <<call>>
Application ..> AuthController : <<call>>

@enduml